<svg width="56" height="56" viewBox="0 0 56 56" fill="none" xmlns="http://www.w3.org/2000/svg">
<path d="M45.1501 7H47.2501V5.25H42.8751C42.6431 5.25 42.4205 5.34219 42.2564 5.50628C42.0923 5.67038 42.0001 5.89294 42.0001 6.125V10.5H43.7501V8.12C48.7005 12.0495 52.0062 17.685 53.0202 23.9235C54.0343 30.1619 52.6837 36.5543 49.2328 41.8494C45.7819 47.1445 40.4791 50.9611 34.3623 52.5524C28.2455 54.1436 21.7551 53.3947 16.1614 50.4525L15.3389 51.9925C21.2867 55.1192 28.1835 55.927 34.6929 54.2592C41.2022 52.5914 46.8609 48.5668 50.5724 42.9652C54.2839 37.3636 55.7842 30.5837 54.7824 23.9391C53.7806 17.2946 50.3482 11.2584 45.1501 7Z" fill="#394770"/>
<path d="M12.25 47.8887C7.28781 43.9632 3.97117 38.3254 2.95055 32.0811C1.92993 25.8368 3.27898 19.4364 6.73311 14.1353C10.1872 8.8341 15.4973 5.01462 21.6217 3.4259C27.7462 1.83718 34.2433 2.59385 39.8388 5.5475L40.6613 4.0075C34.7134 0.88075 27.8167 0.0730279 21.3073 1.74082C14.7979 3.40862 9.13927 7.4332 5.42773 13.0348C1.7162 18.6364 0.21598 25.4163 1.21775 32.0609C2.21951 38.7054 5.65195 44.7416 10.85 49H8.75002V50.75H13.125C13.3571 50.75 13.5796 50.6578 13.7437 50.4937C13.9078 50.3296 14 50.1071 14 49.875V45.5H12.25V47.8887Z" fill="#394770"/>
<path d="M7.875 28C7.875 31.9803 9.05531 35.8713 11.2667 39.1808C13.478 42.4904 16.6211 45.0699 20.2985 46.5931C23.9759 48.1163 28.0223 48.5148 31.9262 47.7383C35.8301 46.9618 39.416 45.0451 42.2305 42.2305C45.0451 39.416 46.9618 35.8301 47.7383 31.9262C48.5148 28.0223 48.1163 23.9759 46.5931 20.2985C45.0699 16.6211 42.4904 13.478 39.1808 11.2667C35.8713 9.05531 31.9803 7.875 28 7.875C22.6625 7.875 17.5436 9.99531 13.7695 13.7695C9.99531 17.5436 7.875 22.6625 7.875 28ZM46.375 28C46.375 31.6342 45.2973 35.1868 43.2783 38.2086C41.2592 41.2304 38.3894 43.5855 35.0318 44.9763C31.6742 46.367 27.9796 46.7309 24.4152 46.0219C20.8508 45.3129 17.5767 43.5629 15.0069 40.9931C12.4371 38.4233 10.6871 35.1492 9.97807 31.5848C9.26907 28.0204 9.63295 24.3258 11.0237 20.9682C12.4145 17.6106 14.7696 14.7408 17.7914 12.7217C20.8131 10.7027 24.3658 9.625 28 9.625C32.8734 9.625 37.5471 11.5609 40.9931 15.0069C44.4391 18.4529 46.375 23.1266 46.375 28Z" fill="#394770"/>
<path d="M11.375 28C11.375 31.2881 12.35 34.5024 14.1768 37.2364C16.0036 39.9703 18.6001 42.1012 21.6379 43.3595C24.6757 44.6178 28.0184 44.947 31.2434 44.3056C34.4683 43.6641 37.4306 42.0807 39.7557 39.7557C42.0807 37.4306 43.6641 34.4683 44.3056 31.2434C44.947 28.0184 44.6178 24.6757 43.3595 21.6379C42.1012 18.6001 39.9703 16.0036 37.2364 14.1768C34.5024 12.35 31.2881 11.375 28 11.375C23.5908 11.375 19.3621 13.1266 16.2444 16.2444C13.1266 19.3621 11.375 23.5908 11.375 28ZM37.3713 19.8713L39.1213 18.1212C41.3537 20.6123 42.6768 23.7859 42.875 27.125H40.25V28.875H42.875C42.6803 32.2048 41.3668 35.3712 39.1475 37.8613L37.3975 36.1113L36.155 37.3538L37.905 39.1038C35.4095 41.348 32.2255 42.6778 28.875 42.875V40.25H27.125V42.875C23.7952 42.6803 20.6288 41.3668 18.1388 39.1475L19.8888 37.3975L18.6463 36.155L16.8962 37.905C14.6679 35.4034 13.3538 32.22 13.1688 28.875H15.75V27.125H13.1688C13.3635 23.7952 14.677 20.6288 16.8962 18.1388L18.6463 19.8888L19.8888 18.6463L18.1388 16.8962C20.6288 14.677 23.7952 13.3635 27.125 13.1688V15.75H28.875V13.1688C32.2048 13.3635 35.3712 14.677 37.8613 16.8962L36.1113 18.6463L37.3713 19.8713Z" fill="#394770"/>
<path d="M28.875 17.5H27.125V28C27.1243 28.1152 27.1464 28.2293 27.19 28.3359C27.2335 28.4425 27.2977 28.5395 27.3788 28.6212L32.6288 33.8712L33.8713 32.6287L28.875 27.6412V17.5Z" fill="#394770"/>
</svg>
