<svg width="56" height="56" fill="none" xmlns="http://www.w3.org/2000/svg"><path d="M28.725 7.484c-8.238-.395-15.237 5.962-15.633 14.2a14.933 14.933 0 005.442 12.26 2.778 2.778 0 011.066 2.134v2.188a2.8 2.8 0 001.867 2.629V42c.002.69.262 1.356.728 1.866a2.757 2.757 0 000 3.734 2.773 2.773 0 001.213 4.519 4.652 4.652 0 009.175 0 2.773 2.773 0 001.222-4.52 2.757 2.757 0 000-3.733c.466-.51.726-1.175.728-1.866v-1.105a2.8 2.8 0 001.867-2.629v-2.08a2.806 2.806 0 01.99-2.181 14.846 14.846 0 005.543-11.699c-.135-7.894-6.326-14.353-14.208-14.822zM28 54.133a2.805 2.805 0 01-2.64-1.867h5.28A2.805 2.805 0 0128 54.133zm3.733-3.733h-7.466a.933.933 0 010-1.867h7.466a.933.933 0 010 1.867zm0-3.734h-7.466a.933.933 0 010-1.866h7.466a.933.933 0 010 1.866zM32.666 42a.933.933 0 01-.933.933h-7.466a.933.933 0 01-.934-.933v-.934h9.334V42zm3.552-9.447a4.626 4.626 0 00-1.685 3.633v2.08a.933.933 0 01-.933.934h-4.667V21.466a.933.933 0 00-1.866 0V39.2H22.4a.933.933 0 01-.933-.934v-2.188a4.64 4.64 0 00-1.75-3.58c-5.578-4.58-6.387-12.813-1.807-18.39a13.067 13.067 0 0110.726-4.759c6.897.41 12.314 6.063 12.43 12.971a12.99 12.99 0 01-4.848 10.233zM28 0a.933.933 0 00-.933.933v3.734a.933.933 0 101.866 0V.933A.933.933 0 0028 0zM19.948 6.586l-.006-.01-1.867-3.233a.933.933 0 10-1.623.923l.006.01 1.867 3.233a.933.933 0 101.623-.923zM13.12 12.731l-.01-.006-3.234-1.867a.933.933 0 00-.934 1.617l3.234 1.867a.933.933 0 10.944-1.61zM10.267 21.467H6.533a.933.933 0 100 1.866h3.734a.933.933 0 100-1.866zM13.46 30.802a.933.933 0 00-1.273-.35l-.01.006-3.234 1.867a.933.933 0 00.922 1.623l.01-.007 3.235-1.866a.933.933 0 00.35-1.273zM47.058 32.325l-3.234-1.867a.934.934 0 10-.934 1.617l3.234 1.866a.933.933 0 00.934-1.616zM49.466 21.467h-3.733a.933.933 0 100 1.866h3.733a.933.933 0 100-1.866zM47.392 11.198a.933.933 0 00-1.267-.34l-3.234 1.867a.933.933 0 00.934 1.617l3.233-1.867a.933.933 0 00.334-1.277zM39.209 3a.933.933 0 00-1.278.332l-.006.011-1.867 3.232a.933.933 0 101.617.934l1.867-3.233A.933.933 0 0039.207 3z" fill="#394770"/><path d="M28 14.933a.933.933 0 00-.933.934v1.866a.933.933 0 101.866 0v-1.866a.933.933 0 00-.933-.934z" fill="#394770"/></svg>