<svg width="40" height="40" fill="none" xmlns="http://www.w3.org/2000/svg"><g clip-path="url(#clip0)" fill="#394770"><path d="M25.333 0a.667.667 0 000 1.333c7.352 0 13.333 5.982 13.333 13.334a.667.667 0 001.333 0C40 6.579 33.42 0 25.333 0z"/><path d="M25.333 4a.667.667 0 000 1.333c5.146 0 9.333 4.187 9.333 9.334a.667.667 0 001.333 0C36 8.785 31.215 4 25.333 4z"/><path d="M25.333 8a.667.667 0 000 1.333 5.34 5.34 0 015.333 5.334.667.667 0 001.333 0A6.674 6.674 0 0025.333 8zM36.076 25.017a24.361 24.361 0 01-5.316-1.322 4.576 4.576 0 00-4.808 1.025l-2.107 2.103a30.42 30.42 0 01-10.721-10.7l2.108-2.104a4.554 4.554 0 001.026-4.796 24.269 24.269 0 01-1.325-5.312c-.32-2.252-2.27-3.92-4.549-3.911H4.552a4.53 4.53 0 00-3.494 1.634A4.519 4.519 0 00.02 4.967a39.196 39.196 0 006.07 17.11A38.788 38.788 0 0017.953 33.92a39.388 39.388 0 0017.082 6.062c.137.012.275.018.414.018h.012c2.512-.01 4.547-2.059 4.537-4.563v-5.813a4.55 4.55 0 00-3.923-4.607zm2.59 4.583v5.84a3.223 3.223 0 01-3.208 3.227c-.104-.004-.204-.004-.292-.012a38.052 38.052 0 01-16.493-5.857A37.459 37.459 0 017.21 21.356a37.856 37.856 0 01-5.864-16.52 3.187 3.187 0 01.735-2.347 3.203 3.203 0 012.47-1.156H10.423a3.227 3.227 0 013.19 2.758c.252 1.91.722 3.794 1.398 5.6a3.217 3.217 0 01-.722 3.387l-2.47 2.465a.666.666 0 00-.108.802 31.747 31.747 0 0011.914 11.89.666.666 0 00.8-.107l2.467-2.461a3.24 3.24 0 013.401-.723 25.666 25.666 0 005.603 1.394 3.216 3.216 0 012.77 3.262z"/><path d="M10 2.667H4.551a1.883 1.883 0 00-1.448.678c-.15.179-.492.668-.432 1.34a38.082 38.082 0 001.356 6.839.668.668 0 001.278-.381 36.688 36.688 0 01-1.307-6.588c-.015-.169.095-.315.129-.356.054-.065.176-.178.424-.199H10A.666.666 0 0010 2.667zM36.666 29.333a.667.667 0 00-.667.667v5.44a.556.556 0 01-.537.56l-.061-.002a36.66 36.66 0 01-6.543-1.303.667.667 0 00-.383 1.277 38.02 38.02 0 006.794 1.353 1.876 1.876 0 001.515-.55 1.88 1.88 0 00.548-1.338V30a.667.667 0 00-.666-.667z"/></g><defs><clipPath id="clip0"><path fill="#fff" d="M0 0h40v40H0z"/></clipPath></defs></svg>