<svg width="56" height="56" fill="none" xmlns="http://www.w3.org/2000/svg"><path d="M31.666 33.628a8.428 8.428 0 01-1.616-.051 1.533 1.533 0 01-.113-.02c.425 1.358.653 2.802.653 4.298 0 7.962-6.477 14.44-14.439 14.44-1.35 0-2.686-.187-3.971-.554a.82.82 0 10-.45 1.578 16.11 16.11 0 004.421.616c8.867 0 16.08-7.214 16.08-16.08 0-1.462-.197-2.88-.565-4.227z" fill="#394770"/><path d="M43.572 22.187c.34-1.3.52-2.663.52-4.067 0-8.89-7.231-16.121-16.12-16.121-2.476 0-4.851.546-7.06 1.624a.822.822 0 00.72 1.478 14.336 14.336 0 016.34-1.457c7.982 0 14.476 6.494 14.476 14.476a14.44 14.44 0 01-.5 3.772 16.326 16.326 0 00-2.791-.116l-.043-.002a.809.809 0 00-.124.01 15.972 15.972 0 00-8.695 3.133c-.84.622-1.61 1.316-2.305 2.071a16.323 16.323 0 00-2.305-2.072 15.973 15.973 0 00-8.75-3.135.847.847 0 00-.106-.007l-.024.001a16.44 16.44 0 00-2.809.121 14.44 14.44 0 01-.5-3.776c0-3.556 1.3-6.975 3.664-9.627A.822.822 0 1015.932 7.4a16.097 16.097 0 00-4.081 10.72c0 1.41.182 2.778.523 4.082C5.286 23.894 0 30.28 0 37.88c0 4.972 2.243 9.59 6.154 12.67a.822.822 0 101.018-1.291 14.404 14.404 0 01-5.527-11.38c0-6.866 4.805-12.63 11.23-14.107 1.872 4.984 6.145 8.803 11.404 10.04-.34 1.3-.52 2.663-.52 4.067 0 8.89 7.231 16.121 16.12 16.121C48.77 54.001 56 46.77 56 37.881c0-7.62-5.313-14.02-12.428-15.694zM16.007 26.26a14.45 14.45 0 01-1.479-2.77c.49-.053.984-.08 1.479-.084v2.854zM19.43 29.8c-.634-.465-1.23-.98-1.78-1.54v-4.772c.602.064 1.196.163 1.78.3V29.8zm3.472 1.88a14.412 14.412 0 01-1.827-.835V24.28c.626.23 1.236.503 1.827.82v6.58zm17.033-8.275c.495.002.99.029 1.48.08a14.46 14.46 0 01-1.48 2.774v-2.854zm-3.424.392c.584-.139 1.178-.24 1.78-.305v4.768c-.55.56-1.146 1.075-1.78 1.54v-6.003zM33.04 25.12a14.308 14.308 0 011.828-.826v6.551c-.587.319-1.197.598-1.828.834v-6.56zm-1.766 1.118c.04-.03.081-.056.121-.086v6.034c-.06.014-.119.03-.179.043a16.112 16.112 0 00-2.158-3.967 14.646 14.646 0 012.216-2.024zm-.854 9.395h-4.84c.08-.518.19-1.026.324-1.525a16.201 16.201 0 004.189-.007c.136.504.246 1.015.327 1.532zm-2.43-6.018a14.367 14.367 0 011.557 2.895 14.57 14.57 0 01-3.115.004c.41-1.03.932-2 1.559-2.9zm-3.442 2.57v-6.06l.159.113c.818.606 1.56 1.288 2.224 2.033a16.009 16.009 0 00-2.157 3.968 14.31 14.31 0 01-.226-.053zm.855 5.695c0-.202.005-.404.014-.605.015.001.03.003.046.003h5.121a14.396 14.396 0 01-.036 1.779h-5.097c-.031-.388-.048-.78-.048-1.177zm.277 2.822h4.637c-.123.62-.287 1.23-.49 1.827H26.17a14.388 14.388 0 01-.49-1.827zm2.323 5.446a14.505 14.505 0 01-1.159-1.974h2.312c-.33.686-.716 1.346-1.153 1.974zm11.876 6.208a14.444 14.444 0 01-10.815-4.864 16.165 16.165 0 003.178-9.611c0-1.385-.18-2.756-.527-4.08 5.24-1.25 9.494-5.066 11.358-10.04 6.45 1.459 11.282 7.235 11.282 14.12 0 7.982-6.494 14.475-14.476 14.475z" fill="#394770"/></svg>