<svg xmlns="http://www.w3.org/2000/svg" width="4486.667" height="2666.667"><path d="M1235.92 198.813c583.04-33.72 1194.347 141.907 1104.48 396.507-51.987 147.293 116.973 93.88 312.693 40.48 142.574-38.907 299.36-77.813 395.267-39.12 162.013 65.347 97.253 264.293 175.64 344.453 94.987 97.147 191.133 78.28 294.44 59.414 92.133-16.84 189.973-33.667 297.787 31.8 228.733 138.866 133.626 1437.52 40.493 1437.333l-3527.2-6.44-42.204 1.373s-258.68-373.053-24.508-590.88c234.172-217.84 73.388-317.44 44.93-401.626-32.677-96.667-108.92-265.494 223.28-389.387C863.214 958.827 777.44 689.253 769.272 633.44c-8.168-55.827-116.396-400.92 466.647-434.627" fill="#eafcfc"/><path d="M3300.32 872.093h-111.64c-25.413-93.666-14.653-224.733-140.32-275.413-4.92-1.987-10-3.773-15.24-5.36V395.44h267.2v476.653" fill="#c3dafb"/><path d="M3033.12 2463.6V591.32a180.004 180.004 0 0115.24 5.36c125.667 50.68 114.907 181.747 140.32 275.413h-155.56V2463.6M2659.973 2463.6V1026.28h267.187v331.253h-267.187V2463.6" fill="#bbd9fa"/><path d="M3411.64 1015.413V843.52h267.2v143.16a358.775 358.775 0 00-31.507-1.36c-44.4 0-87.226 7.613-128.893 15.227-36.4 6.64-71.92 13.293-106.8 14.866" fill="#c3dafb"/><path d="M3411.64 2463.6V1015.413c34.88-1.573 70.4-8.226 106.8-14.866 41.667-7.614 84.493-15.227 128.893-15.227 10.414 0 20.907.427 31.507 1.36v230.227h-267.2V2463.6M2286.813 2463.6V779.813h267.2v388.067h-267.2V2463.6M1913.667 2463.6V1279.04h267.2v273.013h-267.2V2463.6" fill="#bbd9fa"/><path d="M3300.32 996.28c-25.6-11.6-51-29.253-76.32-55.147-17.587-17.986-27.973-41.946-35.32-69.04h111.64V996.28" fill="#accaf9"/><path d="M3300.32 2463.6h-267.2V872.093h155.56c7.347 27.094 17.733 51.054 35.32 69.04 25.32 25.894 50.72 43.547 76.32 55.147V2463.6M2659.973 2463.6h267.187V1357.533h-267.187zM3411.64 2463.6h267.2V1216.905h-267.2zM2286.813 2463.6h267.2V1167.876h-267.2zM1913.667 2463.6h267.2v-911.547h-267.2z" fill="#a5c9f8"/><path d="M3808.707 411.267L3595.8 572.28l81.213 5.187-508.24 894.493-281.413-421.893-398.08 928.546-256.053-363.693-319.147 451.133 20.08 80.747 298.92-420.507 270.667 384.44 396.626-925.146 273.04 409.36 562.68-990.32 52.24 56.186 20.374-249.546" fill="#5183bf"/><path d="M1670.653 1865.587c-305.533-243.307-562.25-558-756.626-927.507-140.079 112.533-280.158 225.053-420.235 337.587 224.741 427.226 521.563 791.08 874.821 1072.386 100.68-160.826 201.36-321.64 302.04-482.466" fill="#3c8f7c"/><path d="M848.227 1026.307c-87.014 71.026-174.027 142.04-261.04 213.053 20.721 38.627 13.202 90.747-17.668 117.187 197.566 349.333 445.168 652.853 733.493 899.146 23.575-35.386 68.001-42.253 99.935-16.346 63.48-99.854 126.973-199.72 190.453-299.574-29.387-23.84-33.573-72.573-10.013-107.933-253.199-216.28-470.631-482.813-644.124-789.587-30.848 26.427-71.964 19.614-91.036-15.946" fill="#96d9c9"/><path d="M1199.873 1824.893c65.235-84.186 64.611-208.386 3.075-282.693-61.703-74.107-167.123-77.587-240.052-2.667-72.812 74.76-79.77 207.654-10.405 291.094 69.286 83.533 182.282 78.32 247.382-5.734" fill="#50bfa5"/><path d="M1195.553 1585.987a37819.11 37819.11 0 01-24.594 27.293c19.61 35.947 15.46 73.093-5.684 97.373-21.346 24.427-45.247 26.694-81.683 5.107-26.461-14.947-39.18-19.36-47.243-10.627-6.822 7.374-9.082 20.76 5.376 39.04 7.858 9.92 15.704 16.547 22.652 21.214 9.26 6.226 12.186 20.293 6.48 31.12-5.52 10.453-17.174 13.92-26.1 7.56-7.294-5.2-15.262-12.294-23.86-22.147-7.092 7.84-14.184 15.653-21.278 23.48a3305.56 3305.56 0 01-22.151-28.08c7.721-8.373 15.441-16.733 23.16-25.107-18.73-36.173-15.008-72.146 6.733-94.96 23.998-25.2 51.747-17.453 83.556 2.494 22.058 13.76 34.843 15.933 43.98 5.773 9.63-10.733 6.495-27.093-5.637-42.56-8.332-10.627-17.992-18.72-27.52-24.72-9.36-5.907-11.905-20.32-5.61-31.093.229-.4.457-.8.686-1.187 5.712-9.787 16.623-13.093 24.943-7.667 9.976 6.507 20.709 15.814 30.186 26.854 7.7-8.387 15.4-16.787 23.096-25.187 6.795 8.72 13.634 17.4 20.512 26.027" fill="#3c8f7c"/><path d="M1440.587 2041.533c-69.627-59.626-136.723-122.8-201.128-189.346-11.038 14.346-22.074 28.706-33.111 43.053 65.308 67.48 133.345 131.547 203.945 192 10.094-15.24 20.187-30.48 30.294-45.707" fill="#50bfa5"/><path d="M1608.36 1767.493c-383.77-48.68-760.137-177.08-1109.281-378.44-66.375 155.507-132.75 311.027-199.124 466.534 403.689 232.826 838.853 381.293 1282.578 437.56 8.6-175.214 17.214-350.44 25.827-525.654" fill="#3c8f7c"/><path d="M485.196 1490.173c-40.685 97.494-81.368 194.974-122.053 292.467 36.849 20.867 55.818 65.773 41.992 101.347 342.046 183.853 705.05 307.693 1075.358 366.866 3.134-39.226 38.28-65.666 78.627-60.2l18.56-327.773c-37.12-5.04-64.587-41.72-61.453-80.92-325.196-51.96-643.968-160.72-944.338-322.16-13.814 35.547-52.781 49.573-86.693 30.373" fill="#96d9c9"/><path d="M1180.455 1957.72c15.369-97.64-45.907-195.92-135.568-225.8-89.714-29.64-182.783 17.413-209.352 111.347-26.542 93.746 32.413 202.506 133.329 235.933 100.892 33.547 196.273-24 211.59-121.48" fill="#50bfa5"/><path d="M1059.887 1770.16c-2.654 11.107-5.308 22.2-7.967 33.293 34.575 19.254 49.14 50.694 42.685 79.96-6.549 29.48-26.158 42.574-68.29 42.667-30.243.64-43.424 3.147-46.138 13.893-2.308 9.08 2.28 20.774 23.75 28.44 11.657 4.16 21.697 5.707 30.002 6.134 11.071.56 20.484 10.346 20.83 21.626.329 10.907-8.072 19.174-18.919 18.334-8.865-.667-19.239-2.534-31.507-6.294-2.317 9.574-4.638 19.134-6.96 28.694a3669.065 3669.065 0 01-32.932-11.814c2.602-10.293 5.199-20.586 7.796-30.88-33.924-19.853-48.282-50.146-40.597-78.533 8.472-31.347 36.308-38.32 73.633-37.52 25.847.493 37.99-3.827 40.938-16.213 3.094-13.067-7.623-24.574-25.7-31.107-12.418-4.493-24.747-6.36-35.939-6.613-10.995-.254-20.252-10.494-20.068-22.027l.019-1.253c.166-10.467 8-18.254 17.866-17.88 11.831.453 25.679 2.76 39.295 7.04 2.57-10.294 5.137-20.6 7.703-30.894a3160.368 3160.368 0 0030.5 10.947" fill="#3c8f7c"/><path d="M1432.133 993.013c-9.306-3.12-18.466-6.64-27.32-10.893-10-4.813-22.96-10.44-31.146-11.693-17.24-2.654-46.843-.894-63.194 16.786-20.369 22.027-56.562 3.974-49.272 119.32 8.254 130.547 81.092 116.214 82.852 114 1.774-2.2 64.96-83.52 64.96-83.52s22.094 48.174 22.094 46.4c0-1.706 112.826-152.866 1.026-190.4" fill="#0e2e35"/><path d="M1508.907 1853.653c-301.943 119.294-635.084 173.827-981.88 160.734l69.048 442.693c400.974 15.147 786.165-47.907 1135.272-185.84-74.147-139.187-148.294-278.387-222.44-417.587" fill="#3c8f7c"/><path d="M563.323 2098.36c15.101 92.133 30.204 184.253 45.305 276.387 36.424 1.08 70.856 28.093 77.11 61.293 333.586 2.44 654.902-50.147 951.862-155.813-15.72-31.64-2.253-66.507 29.64-78.774-45.627-87.133-91.267-174.253-136.907-261.386-29.36 11.28-66.213-5.894-81.92-37.52-260.769 92.786-542.93 138.973-835.869 136.826 6.25 33.174-15.704 59.974-49.221 58.987" fill="#96d9c9"/><path d="M1284.455 2175.987c-33.619-81.894-123.367-132.92-202.403-119.387-78.97 13.747-125.179 88.253-101.425 171.853 23.689 83.454 116.56 143.547 205.425 128.147 88.901-15.293 131.98-98.867 98.403-180.613" fill="#50bfa5"/><path d="M1110.53 2080.08c3.162 9.68 6.32 19.36 9.475 29.04 34.03.76 59.071 19.147 67.796 44.44 8.76 25.507.483 43.667-30.172 60.973-21.738 12.867-30.19 20.2-27.234 29.64 2.484 7.974 11.193 15.147 30.357 12.307 10.399-1.547 18.424-4.467 24.67-7.533 8.325-4.094 19.67-.36 25.102 8.226 5.247 8.32 2.917 18.147-5.365 21.947-6.77 3.107-15.183 5.907-25.843 8.013 2.7 8.36 5.399 16.707 8.096 25.067-9.79 1.48-19.597 2.92-29.42 4.307-2.827-9.027-5.656-18.054-8.487-27.08-33.829-1.507-58.197-19.094-65.622-44.214-8.216-27.733 8.864-44.52 36.425-59.173 19.059-10.187 25.924-18.493 22.387-29.293-3.744-11.387-16.832-15.907-33.004-13.587-11.111 1.6-20.946 5.213-29.219 9.587-8.127 4.306-19.572.16-24.73-8.84-.187-.334-.377-.654-.565-.987-4.682-8.173-2.549-17.413 4.814-21.147 8.828-4.493 19.974-8.373 31.862-10.626-2.854-9.027-5.712-18.054-8.572-27.08 9.098-1.28 18.182-2.614 27.25-3.987" fill="#3c8f7c"/><path d="M1540.307 2092.347c-71.814 25.453-145.134 47.613-219.782 66.426 5.767 13.907 11.534 27.8 17.302 41.707 75.693-19.08 150.04-41.547 222.866-67.36-6.8-13.587-13.586-27.187-20.386-40.773" fill="#50bfa5"/><path d="M1010.737 2340.32v108.107c0 17.48 194.962 31.64 435.463 31.64 240.493 0 435.453-14.16 435.453-31.64V2340.32h-870.916" fill="#e59f39"/><path d="M1325.87 2478.853V2340.32h-315.133v108.107c0 14.44 133.16 26.626 315.134 30.426M1340.533 2479.133c33.827.614 69.227.934 105.667.934 54.293 0 106.267-.72 154.2-2.04V2340.32h-259.867v138.813M1617.853 2477.52c155.147-4.84 263.8-16.04 263.8-29.093V2340.32h-263.8v137.2" fill="#eab054"/><path d="M1881.653 2339.173c0 17.48-194.96 31.654-435.453 31.654-240.501 0-435.463-14.174-435.463-31.654 0-17.466 194.962-31.64 435.463-31.64 240.493 0 435.453 14.174 435.453 31.64" fill="#e59f39"/><path d="M1804.787 2339.173c0 12.12-160.547 21.947-358.587 21.947-198.048 0-358.595-9.827-358.595-21.947 0-12.106 160.547-21.933 358.595-21.933 198.04 0 358.587 9.827 358.587 21.933" fill="#f7cc7f"/><path d="M936.235 2225.933v108.107c0 17.467 194.961 31.64 435.458 31.64 240.494 0 435.454-14.173 435.454-31.64v-108.107H936.235" fill="#e59f39"/><path d="M1251.368 2364.453v-138.52H936.235v108.107c0 14.44 133.16 26.627 315.133 30.413M1266.035 2364.747c33.828.6 69.218.933 105.658.933 54.294 0 106.267-.72 154.2-2.04v-137.707h-259.858v138.814M1543.347 2363.12c155.146-4.84 263.8-16.04 263.8-29.08v-108.107h-263.8v137.187" fill="#eab054"/><path d="M1807.147 2224.787c0 17.48-194.96 31.64-435.454 31.64-240.497 0-435.458-14.16-435.458-31.64s194.961-31.64 435.458-31.64c240.494 0 435.454 14.16 435.454 31.64" fill="#e59f39"/><path d="M1730.28 2224.787c0 12.12-160.547 21.933-358.587 21.933-198.045 0-358.59-9.813-358.59-21.933s160.545-21.947 358.59-21.947c198.04 0 358.587 9.827 358.587 21.947" fill="#f7cc7f"/><path d="M985.873 2108.507V2216.6c0 17.48 194.962 31.64 435.46 31.64 240.494 0 435.454-14.16 435.454-31.64v-108.093H985.873" fill="#e59f39"/><path d="M1301.007 2247.027v-138.52H985.873V2216.6c0 14.44 133.16 26.627 315.134 30.427M1315.673 2247.307c33.834.613 69.22.933 105.66.933 54.294 0 106.267-.72 154.2-2.04v-137.693h-259.86v138.8M1592.987 2245.693c155.146-4.84 263.8-16.04 263.8-29.093v-108.093h-263.8v137.186" fill="#eab054"/><path d="M1856.787 2107.347c0 17.48-194.96 31.653-435.454 31.653-240.498 0-435.46-14.173-435.46-31.653 0-17.467 194.962-31.64 435.46-31.64 240.494 0 435.454 14.173 435.454 31.64" fill="#e59f39"/><path d="M1779.92 2107.347c0 12.12-160.547 21.946-358.587 21.946-198.046 0-358.592-9.826-358.592-21.946 0-12.107 160.546-21.934 358.592-21.934 198.04 0 358.587 9.827 358.587 21.934" fill="#f7cc7f"/><path d="M936.235 1992.68v108.093c0 17.48 194.961 31.654 435.458 31.654 240.494 0 435.454-14.174 435.454-31.654V1992.68H936.235" fill="#e59f39"/><path d="M1251.368 2131.2v-138.52H936.235v108.093c0 14.454 133.16 26.627 315.133 30.427M1266.035 2131.48c33.828.613 69.218.947 105.658.947 54.294 0 106.267-.734 154.2-2.054V1992.68h-259.858v138.8M1543.347 2129.867c155.146-4.84 263.8-16.04 263.8-29.094V1992.68h-263.8v137.187" fill="#eab054"/><path d="M1807.147 1991.533c0 17.467-194.96 31.64-435.454 31.64-240.497 0-435.458-14.173-435.458-31.64 0-17.48 194.961-31.653 435.458-31.653 240.494 0 435.454 14.173 435.454 31.653" fill="#e59f39"/><path d="M1730.28 1991.533c0 12.107-160.547 21.934-358.587 21.934-198.045 0-358.59-9.827-358.59-21.934 0-12.12 160.545-21.946 358.59-21.946 198.04 0 358.587 9.826 358.587 21.946" fill="#f7cc7f"/><path d="M3985.093 2331.093v103.947c0 16.813-187.493 30.44-418.76 30.44-231.28 0-418.773-13.627-418.773-30.44v-103.947h837.533" fill="#e59f39"/><path d="M3682.04 2464.293v-133.2h303.053v103.947c0 13.893-128.053 25.613-303.053 29.253M3667.933 2464.573c-32.533.587-66.56.907-101.6.907-52.213 0-102.2-.693-148.293-1.973v-132.414h249.893v133.48M3401.253 2463.027c-149.2-4.667-253.693-15.44-253.693-27.987v-103.947h253.693v131.934" fill="#eab054"/><path d="M3147.56 2329.987c0 16.8 187.493 30.426 418.773 30.426 231.267 0 418.76-13.626 418.76-30.426 0-16.814-187.493-30.427-418.76-30.427-231.28 0-418.773 13.613-418.773 30.427" fill="#e59f39"/><path d="M3221.493 2329.987c0 11.653 154.387 21.093 344.84 21.093 190.44 0 344.84-9.44 344.84-21.093 0-11.654-154.4-21.094-344.84-21.094-190.453 0-344.84 9.44-344.84 21.094" fill="#f7cc7f"/><path d="M4056.733 2221.08v103.96c0 16.8-187.48 30.427-418.76 30.427s-418.76-13.627-418.76-30.427v-103.96h837.52" fill="#e59f39"/><path d="M3753.68 2354.293V2221.08h303.053v103.96c0 13.893-128.053 25.6-303.053 29.253M3739.587 2354.573c-32.534.587-66.574.894-101.614.894-52.213 0-102.2-.694-148.293-1.96V2221.08h249.907v133.493M3472.907 2353.013c-149.2-4.653-253.694-15.426-253.694-27.973v-103.96h253.694v131.933" fill="#eab054"/><path d="M3219.213 2219.973c0 16.814 187.48 30.44 418.76 30.44s418.76-13.626 418.76-30.44c0-16.8-187.48-30.426-418.76-30.426s-418.76 13.626-418.76 30.426" fill="#e59f39"/><path d="M3293.133 2219.973c0 11.654 154.387 21.107 344.84 21.107 190.454 0 344.84-9.453 344.84-21.107 0-11.653-154.386-21.093-344.84-21.093-190.453 0-344.84 9.44-344.84 21.093" fill="#f7cc7f"/><path d="M4009 2108.147v103.96c0 16.813-187.48 30.426-418.76 30.426s-418.76-13.613-418.76-30.426v-103.96H4009" fill="#e59f39"/><path d="M3705.947 2241.36v-133.213H4009v103.96c0 13.893-128.053 25.613-303.053 29.253M3691.84 2241.64c-32.52.587-66.56.893-101.6.893-52.213 0-102.2-.693-148.293-1.96v-132.426h249.893v133.493M3425.173 2240.08c-149.2-4.653-253.693-15.427-253.693-27.973v-103.96h253.693v131.933" fill="#eab054"/><path d="M3171.48 2107.053c0 16.8 187.48 30.427 418.76 30.427s418.76-13.627 418.76-30.427c0-16.813-187.48-30.44-418.76-30.44s-418.76 13.627-418.76 30.44" fill="#e59f39"/><path d="M3245.4 2107.053c0 11.64 154.387 21.094 344.84 21.094 190.453 0 344.84-9.454 344.84-21.094 0-11.653-154.387-21.106-344.84-21.106-190.453 0-344.84 9.453-344.84 21.106" fill="#f7cc7f"/><path d="M4056.733 1996.773v103.947c0 16.813-187.48 30.44-418.76 30.44s-418.76-13.627-418.76-30.44v-103.947h837.52" fill="#e59f39"/><path d="M3753.68 2129.973v-133.2h303.053v103.947c0 13.893-128.053 25.613-303.053 29.253M3739.587 2130.253c-32.534.587-66.574.907-101.614.907-52.213 0-102.2-.693-148.293-1.973v-132.414h249.907v133.48M3472.907 2128.707c-149.2-4.667-253.694-15.44-253.694-27.987v-103.947h253.694v131.934" fill="#eab054"/><path d="M3219.213 1995.667c0 16.8 187.48 30.426 418.76 30.426s418.76-13.626 418.76-30.426c0-16.814-187.48-30.427-418.76-30.427s-418.76 13.613-418.76 30.427" fill="#e59f39"/><path d="M3293.133 1995.667c0 11.653 154.387 21.093 344.84 21.093 190.454 0 344.84-9.44 344.84-21.093 0-11.654-154.386-21.107-344.84-21.107-190.453 0-344.84 9.453-344.84 21.107" fill="#f7cc7f"/><path d="M4251.573 1870.44l-25.146 87.827c-4.067 14.2-165.747-19.667-361.134-75.627-195.373-55.96-350.466-112.84-346.4-127.04l25.16-87.813 707.52 202.653" fill="#e59f39"/><path d="M3963.333 1909.64l32.227-112.533 256.013 73.333-25.146 87.827c-3.36 11.733-114.374-9.36-263.094-48.627M3951.347 1906.467a4920.24 4920.24 0 01-86.054-23.827c-44.106-12.64-86.16-25.32-124.8-37.547l32.04-111.866 211.12 60.466-32.306 112.774M3726.44 1840.627c-124.92-40.04-210.587-74.427-207.547-85.027l25.16-87.813 214.307 61.386-31.92 111.454" fill="#eab054"/><path d="M3544.32 1666.853c-4.067 14.187 151.013 71.067 346.4 127.027 195.373 55.973 357.053 89.827 361.12 75.627 4.067-14.2-151.013-71.067-346.4-127.04-195.373-55.96-357.053-89.814-361.12-75.614" fill="#e59f39"/><path d="M3606.76 1684.733c-2.813 9.84 125.32 55.187 286.213 101.267 160.894 46.093 293.6 75.467 296.427 65.627 2.813-9.854-125.32-55.187-286.213-101.267-160.894-46.093-293.6-75.467-296.427-65.627" fill="#f7cc7f"/><path d="M4022.773 1266l26.787 87.347c4.333 14.12-149.68 73.866-343.987 133.453-194.293 59.587-355.32 96.453-359.653 82.333l-26.787-87.333 703.64-215.8" fill="#e59f39"/><path d="M3802.493 1456l-34.32-111.92 254.6-78.08 26.787 87.347c3.573 11.666-100.987 54.506-247.067 102.653M3790.707 1459.867a4885.13 4885.13 0 01-85.134 26.933c-43.866 13.453-86.026 25.747-125.08 36.56l-34.12-111.253 209.947-64.387 34.387 112.147M3566.267 1527.267c-126.547 34.533-217.12 52.4-220.347 41.866l-26.787-87.333 213.134-65.373 34 110.84" fill="#eab054"/><path d="M3318.853 1480.867c4.334 14.12 165.347-22.747 359.654-82.334 194.306-59.586 348.306-119.333 343.986-133.453-4.333-14.12-165.36 22.733-359.666 82.32-194.307 59.6-348.307 119.347-343.974 133.467" fill="#e59f39"/><path d="M3380.96 1461.827c3 9.786 135.147-22.054 295.147-71.134 160-49.066 287.28-96.786 284.28-106.573-3-9.787-135.147 22.053-295.147 71.12-160.013 49.08-287.293 96.787-284.28 106.587" fill="#f7cc7f"/><path d="M1726.76 2352.64l10.36 55.04c.573 7.147.36 25.24 1.907 31.493 5.813 23.494 104.6-33.6 78.68-38.186-2.347-.414-19.347-17.614-23.24-24.894-6.774-12.68-13-36.293-13-36.293l-54.707 12.84" fill="#f7a491"/><path d="M1812.8 2397.56s-25.493 6.32-38.48 7.613c-12.973 1.294-29.627-18.866-38.933-15.053-10.254 4.2-15.827 68.16-15.827 68.16s162.947 7.427 201.453-3.213c15.267-4.214-57.506-38.08-108.213-57.507" fill="#f47458"/><path d="M1953.96 2350.133l10.36 55.04c.587 7.16.36 25.24 1.907 31.494 5.813 23.493 102.786-29.84 76.866-34.427-2.346-.413-17.52-21.373-21.413-28.653-6.773-12.68-13-36.294-13-36.294l-54.72 12.84" fill="#f7a491"/><path d="M2037.507 2397.56s-25.507 6.32-38.48 7.613c-12.974 1.294-29.627-18.866-38.934-15.053-10.253 4.2-15.826 68.16-15.826 68.16s162.946 7.427 201.453-3.213c15.267-4.214-57.507-38.08-108.213-57.507" fill="#f47458"/><path d="M1388.987 1800.307l296.44-68.76s132.933-35.147 165.026 6.106c32.094 41.254 168.36 610.654 168.36 610.654s-70.293 6.106-74.88 3.053L1779.4 2059.32a254.516 254.516 0 01-30.347-89.827l-11.68-83.626-120.706 35.146s-139.054 30.56-195.587-4.573c-56.547-35.147-32.093-116.133-32.093-116.133" fill="#0e2e35"/><path d="M1502.827 1289.24c4.68.187 17.506 4.467 36.28 39.813 23.96 45.12 58.973 181.454 58.973 181.454l-104.533 38.786-13.427-28.453-22.12-219.053s43.533-12.6 44.827-12.547" fill="#eab054"/><path d="M1364.653 1269.587c29.894.04 103.84 8.733 138.174 19.666 0 0 25.213 216-22.707 380.134-10.72 36.746 8.88 152.306 8.88 152.306l-309.739-4.066s36.694-279.387 22.871-324.52c-13.824-45.12-14.153-202.4-14.153-202.4s2.122-.334 69.589-11.96c31.47-5.414 75.17-9.2 107.085-9.16" fill="#f7cc7f"/><path d="M1184.608 1314.707c28.96-10.827 43.127 249.226 47.03 356.266 51.283 4.907 140.669.027 162.935-1.64 10.467-.773 34.6-9.586 45.014-10.946 10.666-1.387 20.333-2.12 25.573-1.214 1.933.334 55.387 22.12 59.96 26.907 5.667 5.92 21 20.867 18.413 27.333-2.586 6.467-29.48-18.013-29.48-18.013l-13.146-7.347c16.36 15.934 47.573 36.92 43.08 44.56-4.387 7.454-32.547-13.84-52.614-28.36 17.214 15.494 38.6 43.227 33.667 47.547-4.427 3.88-28.747-28.213-54.747-37.467-9.626-3.426-19.226 6.067-26.813 7.214-5.56.84-14.16 2.626-19.627 1.093l-26.106-2.52c-9.587.867-11.867 1.08-21.547 3.133-11.24 2.387-29.68 4.894-43.997 8.374-82.43 20.08-109.923 29.4-135.16 29.386-76.444-.053-80.878-418.72-12.435-444.306" fill="#f7a491"/><path d="M1129.65 1558.853c-5.426-109.64-4.631-244.773 57.038-267.826 24.332-9.107 67.23 45.6 59.513 270.053-32.921 2.707-81.254 4.893-116.552-2.227" fill="#eab054"/><path d="M1816.533 1491.853l-291.813 19.054a19.056 19.056 0 00-16.827 12.96l-75.546 225.013-160.875 10.507c-4.5.306-7.908 4.186-7.615 8.68.294 4.493 4.179 7.893 8.678 7.6l457.878-29.907c12.587-.813 23.52-8.96 27.92-20.773l77.307-207.454c4.827-12.96-5.307-26.586-19.107-25.68" fill="#f47458"/><path d="M1671.133 1630.893c-.586 10.04-8.186 17.774-16.973 17.267-8.8-.507-15.453-9.053-14.88-19.107.587-10.04 8.187-17.773 16.973-17.266 8.8.506 15.454 9.066 14.88 19.106" fill="#fff"/><path d="M1179.444 1810.573l323.036-55.773s139.667-21.28 171.76 19.973c32.08 41.254 125.293 576.067 125.293 576.067s-70.293 6.12-74.866 3.053c-3.56-2.36-88.654-180.653-126.88-260.986a305.7 305.7 0 01-25.36-80.387l-12.28-72.787-40.654 13.987c-71.426 24.6-147.546 33.133-222.52 23.813-31.389-3.893-60.684-10.6-78.857-21.893-56.537-35.147-38.672-145.067-38.672-145.067" fill="#184655"/><path d="M1376.84 1230.173l6.293 46.654s14.08 67.2-4.04 80.16c-18.12 12.96-77.062-82.08-77.062-82.08l6.225-118.2 68.584 73.466" fill="#f7a491"/><path d="M1306.245 1195.013c14.968 40.32 50.622 65.107 75.928 74.707l-5.333-39.547-68.584-73.466-2.01 38.306" fill="#f47458"/><path d="M1373.12 1028.08c38.4-6.173 72.827 24.6 71.88 62.907-.427 16.653-1.787 37.44-5.267 59.826-8.346 53.854-45.213 101.267-69.586 97.04-24.374-4.24-85.704-50.693-74.906-127.32 6.668-47.306 37.582-85.973 77.879-92.453" fill="#f7a491"/><path d="M1312.155 1129.68c-2.056 11.84-11.574 20.08-21.256 18.4-9.683-1.68-15.867-12.653-13.81-24.493 2.058-11.84 11.575-20.08 21.258-18.387 9.682 1.68 15.865 12.64 13.808 24.48" fill="#f7a491"/><path d="M1298.347 1105.2s29.47 7.293 40.413-11.6c10.933-18.893 50.04-59.653 99.76-42.747 49.707 16.894-43.76-41.106-47.733-41.106-3.974 0-51.707-.334-51.707-.334s-36.781 30.16-38.108 33.48c-1.325 3.32-11.93 39.44-11.93 39.44l9.305 22.867" fill="#0e2e35"/><path d="M2742.48 2460.733h733.613v-267H2742.48v267" fill="#50bfa5"/><path d="M2742.48 2267h733.613v-34.36H2742.48V2267M2742.48 2334.093h733.613v-34.36H2742.48v34.36M2742.48 2401.187h733.613v-34.347H2742.48v34.347M2742.48 2460.733h733.613v-34.346H2742.48v34.346" fill="#96d9c9"/><path d="M3015.573 2460.733h152.574v-267h-152.574v267" fill="#f7cc7f"/><path d="M3467.187 2460.733h110.786v-267h-110.786v267" fill="#3c8f7c"/><path d="M4291.373 2456.947H237.508v23.12h4053.865v-23.12" fill="#0e2e35"/><path d="M1959.44 452.213H1369.4a91.234 91.234 0 01-.427-8.786c0-50.08 40.587-90.667 90.654-90.667 16 0 31.026 4.16 44.08 11.44 18.426-50.76 67.08-87.013 124.213-87.013 48.013 0 90.04 25.613 113.173 63.92a107.188 107.188 0 0131.894-4.827c42.973 0 80.026 25.293 97.106 61.813a72.613 72.613 0 0118.387-2.346c34.587 0 63.533 24.133 70.96 56.466M2225.333 812.04h-446.52a68.608 68.608 0 01-.333-6.653c0-37.894 30.72-68.614 68.613-68.614 12.107 0 23.48 3.147 33.347 8.654 13.96-38.4 50.773-65.84 94-65.84 36.333 0 68.147 19.386 85.653 48.373a81.099 81.099 0 0124.134-3.653c32.52 0 60.573 19.146 73.493 46.773a54.984 54.984 0 0113.907-1.773c26.186 0 48.08 18.266 53.706 42.733M1371.307 761.467h-389.37c4.903-21.347 24.002-37.267 46.832-37.267 4.191 0 8.255.533 12.132 1.547 11.267-24.094 35.72-40.8 64.078-40.8 7.33 0 14.401 1.12 21.05 3.2 15.266-25.28 43-42.187 74.684-42.187 37.696 0 69.802 23.92 81.968 57.413a59.545 59.545 0 0129.084-7.546c33.035 0 59.822 26.786 59.822 59.826 0 1.96-.094 3.894-.28 5.814" fill="#fbfefe"/><path d="M1806.24 1066.04l5.2 63.267 36.747-41.387 118.84-97.333-101.347 31.933s-49.893 24.24-52.187 27.44c-2.293 3.2-7.253 16.08-7.253 16.08" fill="#50bfa5"/><path d="M1752.387 1038.867l214.64-48.28-160.787 75.453zM1888.787 1112.893l-66.16-33.013 144.4-89.293z" fill="#96d9c9"/><path d="M1781.173 1101.173c9.92-3.733 17.227-4.533 17.294-4.546l-.48-4.6c-.32.04-7.974.88-18.44 4.813l1.626 4.333M1729.133 1145.067c4.654-11.387 11.414-21.307 20.067-29.494l3.187 3.36c-8.187 7.734-14.574 17.107-18.974 27.88zm-5.813 69.853c-1.84-12.467-2.427-24.267-1.747-35.107l4.614.294c-.654 10.506-.08 22 1.706 34.133l.04.267-4.586.626zm5.173 34.827l4.574-.654c1.946 13.534 3.32 24.587 4.36 34.8l-4.6.467c-1.027-10.147-2.4-21.147-4.334-34.613zm6.587 69.32l4.613-.107c.294 12.56-.08 24.08-1.133 35.213l-4.6-.44c1.027-10.946 1.4-22.293 1.12-34.666zm-18.68 101.146c2.267-4.76 4.347-9.72 6.2-14.746a185.315 185.315 0 005.507-17.667l4.466 1.147a188.356 188.356 0 01-5.64 18.12 179.082 179.082 0 01-6.36 15.133zm-41.147 54.88c8.694-7.946 16.52-16.506 23.267-25.44l3.693 2.774c-6.92 9.173-14.933 17.946-23.853 26.08l-3.107-3.414" fill="#3c8f7c"/></svg>