<svg width="56" height="56" viewBox="0 0 56 56" fill="none" xmlns="http://www.w3.org/2000/svg">
<path d="M50.7278 21.9095L51.5107 14.4245L44.635 11.3658L41.5774 4.49009L34.0924 5.27185L27.9996 0.856812L21.908 5.27185L14.4241 4.49009L11.3654 11.3647L4.48973 14.4245L5.27149 21.9083L0.856445 28L5.27149 34.0906L4.48861 41.5755L11.3643 44.6343L14.4219 51.5099L21.9068 50.7282L27.9996 55.1432L34.0913 50.7282L41.5752 51.5099L44.6339 44.6354L51.5096 41.5755L50.7278 34.0917L55.1428 28L50.7278 21.9095ZM49.1128 40.1912L42.9371 42.9386L40.1897 49.1131L33.4708 48.412L27.9996 52.3768L22.5284 48.412L15.8084 49.1131L13.0611 42.9375L6.88653 40.1912L7.58765 33.4723L3.62285 28L7.58877 22.5288L6.88765 15.8088L13.0633 13.0615L15.8107 6.88689L22.5296 7.58801L27.9996 3.62321L33.4708 7.58801L40.1908 6.88689L42.9382 13.0626L49.1128 15.8088L48.4116 22.5277L52.3764 28L48.4105 33.4712L49.1128 40.1912Z" fill="#394770"/>
<path d="M23.5195 35.3763L16.4714 28.3281L14.8877 29.9118L23.5195 38.5436L43.3514 18.7118L41.7677 17.1281L23.5195 35.3763Z" fill="#394770"/>
</svg>
