<svg width="56" height="56" fill="none" xmlns="http://www.w3.org/2000/svg"><g clip-path="url(#clip0)"><path d="M55.907 34.147l.009-.003-9.195-20.06 2.23-1.11-.834-1.671-2.174 1.082-.294-.64a.933.933 0 00-1.697 0l-.262.572a12.006 12.006 0 00-5.05-1.117H30.8V9.333h1.867V7.467h-1.604l.67-2.685a3.848 3.848 0 10-7.466 0l.671 2.685h-1.604v1.866h1.867V11.2h-7.836c-1.746.001-3.47.384-5.054 1.12l-.262-.573a.933.933 0 00-1.697 0l-.294.641-2.173-1.087-.835 1.672 2.23 1.115L.086 34.144a.911.911 0 00-.085.39 6.54 6.54 0 006.533 6.532h9.333a6.54 6.54 0 006.534-6.533.913.913 0 00-.094-.386L13.088 14.01c1.34-.622 2.8-.944 4.277-.943h7.836v34.146L22.014 50.4h-3.347a4.672 4.672 0 00-4.666 4.666c0 .516.418.934.933.934h26.133a.933.933 0 00.934-.934 4.672 4.672 0 00-4.667-4.666h-3.347l-3.186-3.187V13.067h7.84c1.477 0 2.937.321 4.277.943l-9.233 20.134a.911.911 0 00-.084.39 6.54 6.54 0 006.533 6.532h9.333A6.54 6.54 0 0056 34.533a.91.91 0 00-.093-.386zM15.867 39.2H6.534a4.674 4.674 0 01-4.573-3.733h18.48a4.674 4.674 0 01-4.574 3.733zm4.146-5.6H2.388l8.574-18.705a.922.922 0 00.478 0L20.013 33.6zM26.44 2.628a2.042 2.042 0 013.123 0c.378.48.511 1.109.361 1.7l-.785 3.139h-2.275l-.785-3.138a1.97 1.97 0 01.361-1.7zm.628 8.572V9.333h1.867V11.2h-1.867zm1.867 1.867v33.6h-1.867v-33.6h1.867zm8.4 39.2a2.806 2.806 0 012.64 1.866H16.027a2.805 2.805 0 012.64-1.867h18.667zM31.347 50.4h-6.693l1.866-1.867h2.96l1.867 1.867zM44.56 14.898a.637.637 0 00.472-.02L53.613 33.6H35.988l8.572-18.702zM49.467 39.2h-9.333a4.674 4.674 0 01-4.573-3.733h18.48a4.674 4.674 0 01-4.574 3.733z" fill="#394770"/></g><defs><clipPath id="clip0"><path fill="#fff" d="M0 0h56v56H0z"/></clipPath></defs></svg>