<svg width="56" height="54" viewBox="0 0 56 54" fill="none" xmlns="http://www.w3.org/2000/svg">
<path d="M49.684 27.2854L43.5915 17.877C43.1193 17.1478 42.3187 16.7124 41.4499 16.7124H14.5691C13.7017 16.7124 12.9018 17.1467 12.4294 17.8741L6.31801 27.2836C5.69348 28.245 5.78995 29.5144 6.55262 30.3704L26.0938 52.3088C26.5774 52.8518 27.2717 53.1633 27.9989 53.1633C27.999 53.1633 27.9989 53.1633 27.999 53.1633C28.726 53.1633 29.4205 52.8519 29.9042 52.3089L49.4475 30.3692C50.2091 29.5142 50.3063 28.2461 49.684 27.2854ZM40.2157 18.8998L35.0919 26.8229L29.9651 18.8998H40.2157ZM33.0817 27.743H22.916L27.9989 19.8878L33.0817 27.743ZM26.0326 18.9L20.9199 26.8014L15.8089 18.9H26.0326ZM13.7865 19.8007L18.9238 27.743H8.62801L13.7865 19.8007ZM9.09001 29.9305H20.0981L25.9186 48.8234L9.09001 29.9305ZM27.9989 48.1461L22.3869 29.9305H33.6108L27.9989 48.1461ZM30.0791 48.824L35.8998 29.9306H46.9088L30.0791 48.824ZM37.1021 27.743L42.2348 19.8062L47.3742 27.743H37.1021Z" fill="#394770"/>
<path d="M3.31767 27.743H1.09375C0.489781 27.743 0 28.2327 0 28.8367C0 29.4408 0.489781 29.9305 1.09375 29.9305H3.31767C3.92164 29.9305 4.41142 29.4408 4.41142 28.8367C4.41142 28.2327 3.92164 27.743 3.31767 27.743Z" fill="#394770"/>
<path d="M54.9061 27.743H52.6821C52.0782 27.743 51.5884 28.2327 51.5884 28.8367C51.5884 29.4408 52.0782 29.9305 52.6821 29.9305H54.9061C55.51 29.9305 55.9998 29.4408 55.9998 28.8367C55.9998 28.2327 55.51 27.743 54.9061 27.743Z" fill="#394770"/>
<path d="M47.8128 9.04348C47.3856 8.61637 46.6933 8.61637 46.2659 9.04348L42.6328 12.6766C42.2057 13.1037 42.2057 13.7963 42.6328 14.2234C42.8466 14.437 43.1264 14.5437 43.4063 14.5437C43.6863 14.5437 43.9661 14.4369 44.1797 14.2234L47.8128 10.5903C48.2399 10.1631 48.2399 9.4707 47.8128 9.04348Z" fill="#394770"/>
<path d="M13.4143 12.6571L9.78128 9.02388C9.35428 8.59677 8.66194 8.59677 8.23439 9.02388C7.80729 9.45099 7.80729 10.1436 8.23439 10.5707L11.8675 14.2038C12.0811 14.4174 12.361 14.5241 12.6409 14.5241C12.9208 14.5241 13.2007 14.4173 13.4143 14.2038C13.8414 13.7768 13.8414 13.0841 13.4143 12.6571Z" fill="#394770"/>
<path d="M28.0278 0.836731C27.4239 0.836731 26.9341 1.3264 26.9341 1.93048V9.05823C26.9341 9.66231 27.4238 10.152 28.0278 10.152C28.6318 10.152 29.1216 9.66231 29.1216 9.05823V1.93048C29.1216 1.32651 28.6318 0.836731 28.0278 0.836731Z" fill="#394770"/>
<path d="M28.8005 11.985C28.5972 11.7816 28.315 11.6646 28.0273 11.6646C27.7397 11.6646 27.4575 11.7816 27.2541 11.985C27.0506 12.1885 26.9336 12.4706 26.9336 12.7583C26.9336 13.0471 27.0505 13.3281 27.2541 13.5316C27.4575 13.7361 27.7397 13.852 28.0273 13.852C28.315 13.852 28.5972 13.7361 28.8005 13.5316C29.005 13.3281 29.1211 13.046 29.1211 12.7583C29.1211 12.4706 29.005 12.1886 28.8005 11.985Z" fill="#394770"/>
</svg>
